<svg xmlns="http://www.w3.org/2000/svg" width="358.894" height="153.485" viewBox="0 0 358.894 153.485">
  <ellipse id="Ellipse_4" data-name="Ellipse 4" cx="142.627" cy="55.372" rx="142.627" ry="55.372" transform="translate(73.641 42.742)" fill="#2b2d42" opacity="0.05" style="mix-blend-mode: multiply;isolation: isolate"/>
  <ellipse id="Ellipse_5" data-name="Ellipse 5" cx="136.859" cy="51.106" rx="136.859" ry="51.106" transform="translate(65.653 42.742)" fill="#2b2d42" opacity="0.1" style="mix-blend-mode: multiply;isolation: isolate"/>
  <ellipse id="Ellipse_6" data-name="Ellipse 6" cx="126.948" cy="41.106" rx="126.948" ry="41.106" transform="translate(69.973 57.882)" fill="#2b2d42" opacity="0.2" style="mix-blend-mode: multiply;isolation: isolate"/>
  <path id="Path_841" data-name="Path 841" d="M360.806,280.493c.082-.828.137-1.659.137-2.5,0-34.944-72.68-63.271-162.338-63.271S36.269,243.053,36.269,278c0,.837.055,1.668.137,2.5h-.013q-.123,1.244-.124,2.5c0,22.834,31.038,42.84,77.565,53.967h-.011c23.163,9.462,52.662,15.131,84.783,15.131s61.622-5.669,84.784-15.131h-.013c46.529-11.127,77.567-31.133,77.567-53.967q0-1.253-.124-2.5Z" transform="translate(-35.618 -213.747)" fill="#d6dbdd"/>
  <ellipse id="Ellipse_7" data-name="Ellipse 7" cx="155.628" cy="60.39" rx="155.628" ry="60.39" transform="translate(7.178 1.771)" fill="#f9f9fa"/>
  <ellipse id="Ellipse_8" data-name="Ellipse 8" cx="152.46" cy="56.826" rx="152.46" ry="56.826" transform="translate(10.346 4.543)" fill="#f9f9fa"/>
  <path id="Path_842" data-name="Path 842" d="M193.826,234.023c76.253,0,139.428,20.865,150.677,48.113a22.693,22.693,0,0,0,1.783-8.711c0-31.384-68.259-56.826-152.459-56.826S41.365,242.042,41.365,273.426a22.693,22.693,0,0,0,1.782,8.711C54.4,254.888,117.572,234.023,193.826,234.023Z" transform="translate(-31.02 -212.056)" fill="#edf2f4"/>
  <ellipse id="Ellipse_9" data-name="Ellipse 9" cx="140.976" cy="41.778" rx="140.976" ry="41.778" transform="translate(21.829 32.659)" fill="#fdfdfe"/>
  <path id="Path_843" data-name="Path 843" d="M361.365,249.114c-2.427,34.519-74.324,62.21-162.663,62.21-88.264,0-160.109-27.643-162.658-62.12-.049.649-.082,1.3-.082,1.95,0,35.355,72.864,64.015,162.747,64.015s162.747-28.66,162.747-64.015C361.456,250.47,361.42,249.791,361.365,249.114Z" transform="translate(-35.895 -182.718)" fill="#d6dbdd"/>
  <path id="Path_844" data-name="Path 844" d="M163.118,288.471c-32.511,0-62.7-3.6-87.72-9.77,23.111,9.264,53.9,14.92,87.72,14.92s64.608-5.656,87.718-14.92C225.818,284.868,195.626,288.471,163.118,288.471Z" transform="translate(-0.312 -156.021)" fill="#494c6f"/>
  <path id="Path_845" data-name="Path 845" d="M361.372,278.463l-.017.54c-.023.358.008.888-.078,1.594a25.393,25.393,0,0,1-1.238,6.112,33.753,33.753,0,0,1-4.609,8.92,53.274,53.274,0,0,1-9.339,9.865c-7.834,6.542-18.686,12.787-31.862,18.074a249.312,249.312,0,0,1-45.795,13.084,358.966,358.966,0,0,1-56.052,6.072c-10.006.323-20.3.31-30.8-.11s-21.226-1.242-32.065-2.631a329.9,329.9,0,0,1-32.771-5.777,234.9,234.9,0,0,1-32.648-9.9c-10.678-4.219-21.207-9.375-30.513-16.5a55.819,55.819,0,0,1-12.211-12.637,33.189,33.189,0,0,1-3.987-7.929,26.935,26.935,0,0,1-1.457-8.775,29.563,29.563,0,0,1,5.629-16.581,55.642,55.642,0,0,1,12.3-12.409c9.3-7.027,19.82-12.093,30.487-16.225A242.526,242.526,0,0,1,116.9,223.4c10.94-2.515,21.871-4.45,32.688-5.874s21.517-2.342,32.008-2.85q7.87-.377,15.574-.455,7.7-.049,15.207.173c10,.3,19.727.913,29.09,1.946s18.373,2.359,26.956,3.987a247.912,247.912,0,0,1,45.8,13.048c13.175,5.283,24.022,11.528,31.86,18.063a53.21,53.21,0,0,1,9.34,9.86,33.706,33.706,0,0,1,4.613,8.916,25.548,25.548,0,0,1,1.242,6.108c.084.7.053,1.24.078,1.6Zm-.238,0s-.008-.179-.019-.535c-.029-.354,0-.888-.089-1.583a25.192,25.192,0,0,0-1.269-6.038,33.426,33.426,0,0,0-4.626-8.8,52.9,52.9,0,0,0-9.337-9.725q-2.931-2.414-6.426-4.762c-2.332-1.548-4.855-3.046-7.537-4.507a148.124,148.124,0,0,0-17.986-8.182,218.7,218.7,0,0,0-21.413-6.837c-7.651-2.043-15.8-3.778-24.346-5.34-8.549-1.545-17.518-2.794-26.838-3.734s-18.981-1.68-28.936-2q-7.462-.254-15.135-.243c-5.11-.006-10.282.063-15.51.242-10.453.354-21.123,1.115-31.923,2.372a310.388,310.388,0,0,0-32.648,5.467c-5.458,1.235-10.919,2.614-16.345,4.217s-10.832,3.373-16.147,5.454c-10.6,4.16-21.045,9.255-30.211,16.244A54.518,54.518,0,0,0,42.46,262.5a26.413,26.413,0,0,0,.185,31.8,54.332,54.332,0,0,0,12.021,12.091c9.16,6.888,19.594,11.891,30.186,15.964a237.063,237.063,0,0,0,32.4,9.62,327.6,327.6,0,0,0,32.564,5.566,415.16,415.16,0,0,0,62.489,2.76c9.949-.287,19.611-.995,28.93-1.91s18.289-2.155,26.838-3.685,16.695-3.278,24.348-5.313a217.227,217.227,0,0,0,21.414-6.826,147.8,147.8,0,0,0,17.984-8.178c2.682-1.461,5.2-2.956,7.537-4.5s4.472-3.148,6.426-4.758a52.771,52.771,0,0,0,9.338-9.717,33.378,33.378,0,0,0,4.63-8.794,25.232,25.232,0,0,0,1.271-6.034c.089-.691.063-1.233.089-1.587Z" transform="translate(-35.927 -214.211)" fill="#f9f9fa"/>
  <path id="Path_846" data-name="Path 846" d="M360.827,249.3s.021.367.063,1.079q.031.534.076,1.322c0,.529-.017,1.136-.044,1.826a27.92,27.92,0,0,1-3.34,11.421,40.76,40.76,0,0,1-4.828,7.058,58.546,58.546,0,0,1-7.183,7.067,99.936,99.936,0,0,1-20.419,12.846,186.051,186.051,0,0,1-26.623,10.345,269.182,269.182,0,0,1-30.977,7.522,387.5,387.5,0,0,1-68.942,6.072,387.334,387.334,0,0,1-68.932-6.07A269.2,269.2,0,0,1,98.7,302.265,186.138,186.138,0,0,1,72.074,291.92a99.829,99.829,0,0,1-20.419-12.848,58.411,58.411,0,0,1-7.183-7.067,40.849,40.849,0,0,1-4.826-7.058,27.967,27.967,0,0,1-3.342-11.42c-.025-.691-.042-1.3-.042-1.828q.046-.788.076-1.322c.042-.711.063-1.079.063-1.079s-.015.367-.044,1.079c-.015.356-.034.8-.055,1.324.008.523.034,1.134.072,1.821a27.793,27.793,0,0,0,3.506,11.3,40.674,40.674,0,0,0,4.9,6.919,58.08,58.08,0,0,0,7.238,6.89,103.966,103.966,0,0,0,20.444,12.487A184.889,184.889,0,0,0,99.034,301.16a290.032,290.032,0,0,0,30.888,7.276,386.288,386.288,0,0,0,68.7,5.838,386.105,386.105,0,0,0,68.687-5.838,289.287,289.287,0,0,0,30.89-7.273,185.163,185.163,0,0,0,26.57-10.044,103.822,103.822,0,0,0,20.444-12.487,57.966,57.966,0,0,0,7.238-6.892,40.313,40.313,0,0,0,4.9-6.919,27.765,27.765,0,0,0,3.506-11.3c.038-.689.065-1.3.072-1.822-.021-.525-.04-.968-.055-1.324Z" transform="translate(-35.626 -182.551)" fill="#2b2d42"/>
  <path id="Path_848" data-name="Path 848" d="M347.147,273.493l-.015.5c-.021.331,0,.831-.086,1.482a21.45,21.45,0,0,1-1.269,5.637,27.669,27.669,0,0,1-1.758,3.862,35.458,35.458,0,0,1-2.821,4.246,50.86,50.86,0,0,1-9.038,8.808c-7.508,5.8-17.819,11.189-30.2,15.747a252.42,252.42,0,0,1-42.848,11.184,372.009,372.009,0,0,1-52.163,5.3,403.884,403.884,0,0,1-58.5-2.22c-20.174-2.328-40.98-6.213-61.137-13.453a151.87,151.87,0,0,1-14.863-6.223,98.331,98.331,0,0,1-14.03-8.18A52.632,52.632,0,0,1,46.51,288.951a29.8,29.8,0,0,1-4.042-7.25,23.313,23.313,0,0,1-1.562-8.209c.036-.738.013-1.345.11-2.085a19.718,19.718,0,0,1,.3-2.1,23.724,23.724,0,0,1,1.151-4.029,29.93,29.93,0,0,1,4.042-7.25A52.682,52.682,0,0,1,58.417,246.8a98.545,98.545,0,0,1,14.031-8.182,151.649,151.649,0,0,1,14.861-6.221c20.159-7.24,40.963-11.13,61.137-13.457a404.2,404.2,0,0,1,58.5-2.218,372.013,372.013,0,0,1,52.163,5.3,252.721,252.721,0,0,1,42.848,11.186c12.382,4.558,22.693,9.947,30.2,15.749a50.857,50.857,0,0,1,9.038,8.808,35.232,35.232,0,0,1,2.821,4.246,27.669,27.669,0,0,1,1.758,3.862,21.451,21.451,0,0,1,1.269,5.637c.084.651.065,1.151.086,1.482Zm0,0-.017-.5c-.023-.331,0-.831-.089-1.482a21.377,21.377,0,0,0-1.284-5.629,27.461,27.461,0,0,0-1.763-3.854,35.513,35.513,0,0,0-2.831-4.235,50.746,50.746,0,0,0-9.051-8.772c-7.514-5.775-17.829-11.13-30.211-15.652a244.77,244.77,0,0,0-42.848-11,371.859,371.859,0,0,0-52.125-4.942,403.421,403.421,0,0,0-58.352,2.61c-10.059,1.214-20.241,2.859-30.424,5.075a233.874,233.874,0,0,0-30.359,8.61,149.66,149.66,0,0,0-14.7,6.2,96.759,96.759,0,0,0-13.8,8.094,51.082,51.082,0,0,0-11.539,10.933,22.73,22.73,0,0,0,0,29.085,51.131,51.131,0,0,0,11.539,10.934,96.918,96.918,0,0,0,13.8,8.093,150.364,150.364,0,0,0,14.707,6.2,234.777,234.777,0,0,0,30.357,8.61c10.185,2.218,20.364,3.862,30.426,5.075a403.434,403.434,0,0,0,58.352,2.61,371.853,371.853,0,0,0,52.125-4.944,244.928,244.928,0,0,0,42.848-11c12.382-4.522,22.7-9.877,30.211-15.652a50.745,50.745,0,0,0,9.051-8.772,35.518,35.518,0,0,0,2.831-4.235,27.461,27.461,0,0,0,1.763-3.854,21.378,21.378,0,0,0,1.284-5.629c.086-.651.067-1.151.089-1.482Z" transform="translate(-31.434 -212.158)" fill="#d6dbdd"/>
  <path id="Path_849" data-name="Path 849" d="M73.388,291.654l-.829-.47c-.55-.306-1.364-.765-2.389-1.408-.523-.308-1.088-.678-1.7-1.09s-1.278-.873-1.98-1.385a38.146,38.146,0,0,1-4.5-3.826,24.285,24.285,0,0,1-4.29-5.647,14.482,14.482,0,0,1-1.76-7.774,16.425,16.425,0,0,1,3.249-8.56,33.7,33.7,0,0,1,7.761-7.484,70.52,70.52,0,0,1,10.487-6.142,120.962,120.962,0,0,1,12.262-5c4.309-1.529,8.844-2.859,13.522-4.083s9.521-2.3,14.475-3.26c4.952-.984,10.039-1.765,15.194-2.5q7.747-1.046,15.719-1.762c10.611-.941,21.443-1.382,32.286-1.423,10.82.038,21.673.481,32.279,1.423q7.958.7,15.717,1.76c5.155.737,10.242,1.516,15.194,2.5,4.954.964,9.8,2.022,14.475,3.262,4.678,1.223,9.213,2.554,13.522,4.082a120.957,120.957,0,0,1,12.262,5.005,70.521,70.521,0,0,1,10.487,6.142,33.712,33.712,0,0,1,7.763,7.484,16.4,16.4,0,0,1,3.247,8.562,12.3,12.3,0,0,1-.361,4.121c-.086.324-.173.647-.259.966-.114.311-.23.621-.344.927a18.131,18.131,0,0,1-.793,1.759,24.387,24.387,0,0,1-4.292,5.649,38.116,38.116,0,0,1-4.5,3.825c-.7.513-1.354.984-1.98,1.385s-1.178.783-1.7,1.09c-1.027.643-1.841,1.1-2.391,1.408l-.829.47.826-.477c.546-.311,1.354-.774,2.374-1.424.519-.314,1.079-.688,1.689-1.105s1.267-.881,1.961-1.4a37.727,37.727,0,0,0,4.446-3.851,24.145,24.145,0,0,0,4.206-5.644,14.252,14.252,0,0,0,1.659-7.687,16.2,16.2,0,0,0-3.285-8.4,33.824,33.824,0,0,0-7.714-7.375,70.2,70.2,0,0,0-10.44-6.074,120.432,120.432,0,0,0-12.226-4.948c-4.3-1.513-8.823-2.826-13.489-4.034s-9.5-2.264-14.446-3.212c-4.942-.969-10.02-1.734-15.165-2.454q-7.733-1.022-15.687-1.714c-10.6-.914-21.393-1.321-32.216-1.336-10.8.011-21.622.422-32.21,1.334q-7.941.68-15.687,1.716c-5.146.72-10.223,1.485-15.165,2.453-4.944.948-9.782,1.991-14.446,3.214-4.666,1.207-9.192,2.522-13.489,4.033a120.629,120.629,0,0,0-12.226,4.95,70.194,70.194,0,0,0-10.44,6.073,33.932,33.932,0,0,0-7.714,7.374,16.21,16.21,0,0,0-3.287,8.406,14.263,14.263,0,0,0,1.661,7.687,24.146,24.146,0,0,0,4.206,5.644,37.729,37.729,0,0,0,4.446,3.851c.694.516,1.341.992,1.963,1.4s1.168.793,1.687,1.105c1.02.65,1.828,1.113,2.374,1.424Z" transform="translate(-17.905 -190.109)" fill="#edf2f4"/>
</svg>
